<svg width="22" height="17" viewBox="0 0 22 17" fill="none" xmlns="http://www.w3.org/2000/svg">
<path d="M8.17852 4H4.54003C3.30102 4 2.68151 4 2.20803 4.218C1.79174 4.40974 1.45328 4.71569 1.24116 5.092C1 5.52 1 6.08 1 7.2V12.8C1 13.92 1 14.48 1.24116 14.907C1.45357 15.284 1.79098 15.59 2.20803 15.782C2.68041 16 3.29991 16 4.53671 16H17.376C18.6128 16 19.2311 16 19.7035 15.782C20.1204 15.5902 20.4593 15.2838 20.6715 14.907C20.9127 14.48 20.9127 13.921 20.9127 12.803V7.197C20.9127 6.079 20.9127 5.519 20.6715 5.092C20.4591 4.71554 20.1202 4.40957 19.7035 4.218C19.2311 4 18.6116 4 17.3726 4H13.733M8.17852 4H8.24821M8.17852 4C8.06125 4 7.99598 4 7.94399 3.994C7.79039 3.97851 7.64208 3.9341 7.50863 3.86362C7.37518 3.79315 7.25954 3.69819 7.16918 3.58484C7.07882 3.4715 7.01573 3.3423 6.98398 3.20557C6.95223 3.06884 6.95253 2.92762 6.98486 2.791C7.01009 2.70418 7.03962 2.61843 7.07336 2.534L7.07447 2.528C7.13199 2.374 7.15965 2.298 7.19173 2.229C7.34929 1.8879 7.60834 1.59295 7.94013 1.37688C8.27191 1.16081 8.66345 1.03209 9.07127 1.005C9.15092 1 9.24052 1 9.41863 1H12.4918C12.671 1 12.7606 1 12.8425 1.005C13.2501 1.03227 13.6414 1.16107 13.973 1.37713C14.3046 1.59318 14.5635 1.88804 14.7209 2.229C14.753 2.297 14.7807 2.374 14.8382 2.529C14.8891 2.667 14.9156 2.736 14.9267 2.791C14.959 2.92754 14.9594 3.06869 14.9277 3.20536C14.896 3.34203 14.833 3.47118 14.7428 3.58451C14.6525 3.69784 14.537 3.79282 14.4037 3.86335C14.2704 3.93387 14.1222 3.97838 13.9687 3.994C13.8903 3.99978 13.8116 4.00179 13.733 4M13.733 4H13.6645H8.246M10.9563 13C10.0761 13 9.23199 12.6839 8.6096 12.1213C7.98721 11.5587 7.63755 10.7956 7.63755 10C7.63755 9.20435 7.98721 8.44129 8.6096 7.87868C9.23199 7.31607 10.0761 7 10.9563 7C11.8365 7 12.6807 7.31607 13.3031 7.87868C13.9255 8.44129 14.2751 9.20435 14.2751 10C14.2751 10.7956 13.9255 11.5587 13.3031 12.1213C12.6807 12.6839 11.8365 13 10.9563 13Z" stroke="#1E1E1E" stroke-width="2" stroke-linecap="round" stroke-linejoin="round"/>
</svg>
